<?plantuml 1.2026.2?><svg xmlns="http://www.w3.org/2000/svg" xmlns:xlink="http://www.w3.org/1999/xlink" contentStyleType="text/css" data-diagram-type="ACTIVITY" height="1473px" preserveAspectRatio="none" style="width:1927px;height:1473px;background:#FFFFFF;" version="1.1" viewBox="0 0 1927 1473" width="1927px" zoomAndPan="magnify"><title>Creazione di una prenotazione</title><defs/><g><g class="title" data-source-line="1"><text fill="#000000" font-family="sans-serif" font-size="14" font-weight="bold" lengthAdjust="spacing" textLength="241.1445" x="841.8294" y="32.9951">Creazione di una prenotazione</text></g><ellipse cx="1555.4899" cy="57.2969" fill="#222222" rx="10" ry="10" style="stroke:#222222;stroke-width:1;"/><rect fill="#F1F1F1" height="33.9688" rx="12.5" ry="12.5" style="stroke:#181818;stroke-width:0.5;" width="222.3887" x="1444.2955" y="87.2969"/><text fill="#000000" font-family="sans-serif" font-size="12" lengthAdjust="spacing" textLength="202.3887" x="1454.2955" y="108.4355">Invio richiesta POST /prenotazioni</text><rect fill="#F1F1F1" height="33.9688" rx="12.5" ry="12.5" style="stroke:#181818;stroke-width:0.5;" width="205.209" x="1452.8854" y="141.2656"/><text fill="#000000" font-family="sans-serif" font-size="12" lengthAdjust="spacing" textLength="185.209" x="1462.8854" y="162.4043">Spring Security controlla il JWT</text><polygon fill="#F1F1F1" points="1523.8649,195.2344,1587.1149,195.2344,1599.1149,207.2344,1587.1149,219.2344,1523.8649,219.2344,1511.8649,207.2344,1523.8649,195.2344" style="stroke:#181818;stroke-width:0.5;"/><text fill="#000000" font-family="sans-serif" font-size="11" lengthAdjust="spacing" textLength="63.25" x="1523.8649" y="211.0425">JWT valido?</text><text fill="#000000" font-family="sans-serif" font-size="11" lengthAdjust="spacing" textLength="10.0386" x="1501.8263" y="204.6401">S&#236;</text><text fill="#000000" font-family="sans-serif" font-size="11" lengthAdjust="spacing" textLength="14.9585" x="1599.1149" y="204.6401">No</text><rect fill="#F1F1F1" height="33.9688" rx="12.5" ry="12.5" style="stroke:#181818;stroke-width:0.5;" width="159.9043" x="1235.904" y="229.2344"/><text fill="#000000" font-family="sans-serif" font-size="12" lengthAdjust="spacing" textLength="139.9043" x="1245.904" y="250.373">Avvio della transazione</text><rect fill="#F1F1F1" height="33.9688" rx="12.5" ry="12.5" style="stroke:#181818;stroke-width:0.5;" width="199.9941" x="1215.859" y="283.2031"/><text fill="#000000" font-family="sans-serif" font-size="12" lengthAdjust="spacing" textLength="179.9941" x="1225.859" y="304.3418">Validazione della fascia oraria</text><polygon fill="#F1F1F1" points="1259.4193,337.1719,1372.2929,337.1719,1384.2929,349.1719,1372.2929,361.1719,1259.4193,361.1719,1247.4193,349.1719,1259.4193,337.1719" style="stroke:#181818;stroke-width:0.5;"/><text fill="#000000" font-family="sans-serif" font-size="11" lengthAdjust="spacing" textLength="112.8735" x="1259.4193" y="352.98">Fascia oraria valida?</text><text fill="#000000" font-family="sans-serif" font-size="11" lengthAdjust="spacing" textLength="10.0386" x="1237.3808" y="346.5776">S&#236;</text><text fill="#000000" font-family="sans-serif" font-size="11" lengthAdjust="spacing" textLength="14.9585" x="1384.2929" y="346.5776">No</text><rect fill="#F1F1F1" height="33.9688" rx="12.5" ry="12.5" style="stroke:#181818;stroke-width:0.5;" width="200.0645" x="982.689" y="371.1719"/><text fill="#000000" font-family="sans-serif" font-size="12" lengthAdjust="spacing" textLength="180.0645" x="992.689" y="392.3105">Recupero dell'utente corrente</text><rect fill="#F1F1F1" height="33.9688" rx="12.5" ry="12.5" style="stroke:#181818;stroke-width:0.5;" width="229.5723" x="967.9351" y="425.1406"/><text fill="#000000" font-family="sans-serif" font-size="12" lengthAdjust="spacing" textLength="209.5723" x="977.9351" y="446.2793">Blocco pessimistico sul parcheggio</text><polygon fill="#F1F1F1" points="1022.1273,479.1094,1143.3152,479.1094,1155.3152,491.1094,1143.3152,503.1094,1022.1273,503.1094,1010.1273,491.1094,1022.1273,479.1094" style="stroke:#181818;stroke-width:0.5;"/><text fill="#000000" font-family="sans-serif" font-size="11" lengthAdjust="spacing" textLength="121.188" x="1022.1273" y="494.9175">Parcheggio esistente?</text><text fill="#000000" font-family="sans-serif" font-size="11" lengthAdjust="spacing" textLength="10.0386" x="1000.0887" y="488.5151">S&#236;</text><text fill="#000000" font-family="sans-serif" font-size="11" lengthAdjust="spacing" textLength="14.9585" x="1155.3152" y="488.5151">No</text><rect fill="#F1F1F1" height="33.9688" rx="12.5" ry="12.5" style="stroke:#181818;stroke-width:0.5;" width="204.6055" x="749.8734" y="513.1094"/><text fill="#000000" font-family="sans-serif" font-size="12" lengthAdjust="spacing" textLength="184.6055" x="759.8734" y="534.248">Blocco pessimistico sul veicolo</text><polygon fill="#F1F1F1" points="762.3929,567.0781,941.9594,567.0781,953.9594,579.0781,941.9594,591.0781,762.3929,591.0781,750.3929,579.0781,762.3929,567.0781" style="stroke:#181818;stroke-width:0.5;"/><text fill="#000000" font-family="sans-serif" font-size="11" lengthAdjust="spacing" textLength="179.5664" x="762.3929" y="582.8862">Veicolo appartenente all'utente?</text><text fill="#000000" font-family="sans-serif" font-size="11" lengthAdjust="spacing" textLength="10.0386" x="740.3544" y="576.4839">S&#236;</text><text fill="#000000" font-family="sans-serif" font-size="11" lengthAdjust="spacing" textLength="14.9585" x="953.9594" y="576.4839">No</text><polygon fill="#F1F1F1" points="570.5295,601.0781,686.2874,601.0781,698.2874,613.0781,686.2874,625.0781,570.5295,625.0781,558.5295,613.0781,570.5295,601.0781" style="stroke:#181818;stroke-width:0.5;"/><text fill="#000000" font-family="sans-serif" font-size="11" lengthAdjust="spacing" textLength="115.7578" x="570.5295" y="616.8862">Parcheggio abilitato?</text><text fill="#000000" font-family="sans-serif" font-size="11" lengthAdjust="spacing" textLength="10.0386" x="548.491" y="610.4839">S&#236;</text><text fill="#000000" font-family="sans-serif" font-size="11" lengthAdjust="spacing" textLength="14.9585" x="698.2874" y="610.4839">No</text><rect fill="#F1F1F1" height="47.9375" rx="12.5" ry="12.5" style="stroke:#181818;stroke-width:0.5;" width="171.1895" x="329.855" y="635.0781"/><text fill="#000000" font-family="sans-serif" font-size="12" lengthAdjust="spacing" textLength="151.1895" x="339.855" y="656.2168">Controllo sovrapposizioni</text><text fill="#000000" font-family="sans-serif" font-size="12" lengthAdjust="spacing" textLength="88.4063" x="339.855" y="670.1855">sul parcheggio</text><polygon fill="#F1F1F1" points="331.6204,703.0156,499.2791,703.0156,511.2791,715.0156,499.2791,727.0156,331.6204,727.0156,319.6204,715.0156,331.6204,703.0156" style="stroke:#181818;stroke-width:0.5;"/><text fill="#000000" font-family="sans-serif" font-size="11" lengthAdjust="spacing" textLength="167.6587" x="331.6204" y="718.8237">Parcheggio libero nella fascia?</text><text fill="#000000" font-family="sans-serif" font-size="11" lengthAdjust="spacing" textLength="10.0386" x="309.5818" y="712.4214">S&#236;</text><text fill="#000000" font-family="sans-serif" font-size="11" lengthAdjust="spacing" textLength="14.9585" x="511.2791" y="712.4214">No</text><rect fill="#F1F1F1" height="47.9375" rx="12.5" ry="12.5" style="stroke:#181818;stroke-width:0.5;" width="171.1895" x="154.3252" y="737.0156"/><text fill="#000000" font-family="sans-serif" font-size="12" lengthAdjust="spacing" textLength="151.1895" x="164.3252" y="758.1543">Controllo sovrapposizioni</text><text fill="#000000" font-family="sans-serif" font-size="12" lengthAdjust="spacing" textLength="63.4395" x="164.3252" y="772.123">sul veicolo</text><polygon fill="#F1F1F1" points="166.8516,804.9531,312.9883,804.9531,324.9883,816.9531,312.9883,828.9531,166.8516,828.9531,154.8516,816.9531,166.8516,804.9531" style="stroke:#181818;stroke-width:0.5;"/><text fill="#000000" font-family="sans-serif" font-size="11" lengthAdjust="spacing" textLength="146.1367" x="166.8516" y="820.7612">Veicolo libero nella fascia?</text><text fill="#000000" font-family="sans-serif" font-size="11" lengthAdjust="spacing" textLength="10.0386" x="144.813" y="814.3589">S&#236;</text><text fill="#000000" font-family="sans-serif" font-size="11" lengthAdjust="spacing" textLength="14.9585" x="324.9883" y="814.3589">No</text><rect fill="#F1F1F1" height="33.9688" rx="12.5" ry="12.5" style="stroke:#181818;stroke-width:0.5;" width="226.2148" x="11" y="838.9531"/><text fill="#000000" font-family="sans-serif" font-size="12" lengthAdjust="spacing" textLength="206.2148" x="21" y="860.0918">Creazione dell'entit&#224; Prenotazione</text><rect fill="#F1F1F1" height="47.9375" rx="12.5" ry="12.5" style="stroke:#181818;stroke-width:0.5;" width="159.084" x="44.5654" y="906.8906"/><text fill="#000000" font-family="sans-serif" font-size="12" lengthAdjust="spacing" textLength="139.084" x="54.5654" y="928.0293">Associazione di utente,</text><text fill="#000000" font-family="sans-serif" font-size="12" lengthAdjust="spacing" textLength="124.8457" x="54.5654" y="941.998">veicolo e parcheggio</text><rect fill="#F1F1F1" height="33.9688" rx="12.5" ry="12.5" style="stroke:#181818;stroke-width:0.5;" width="172.3145" x="37.9502" y="974.8281"/><text fill="#000000" font-family="sans-serif" font-size="12" lengthAdjust="spacing" textLength="152.3145" x="47.9502" y="995.9668">Salvataggio nel database</text><rect fill="#F1F1F1" height="33.9688" rx="12.5" ry="12.5" style="stroke:#181818;stroke-width:0.5;" width="173.9551" x="37.1299" y="1028.7969"/><text fill="#000000" font-family="sans-serif" font-size="12" lengthAdjust="spacing" textLength="153.9551" x="47.1299" y="1049.9355">Commit della transazione</text><rect fill="#F1F1F1" height="33.9688" rx="12.5" ry="12.5" style="stroke:#181818;stroke-width:0.5;" width="207.3066" x="20.4541" y="1082.7656"/><text fill="#000000" font-family="sans-serif" font-size="12" lengthAdjust="spacing" textLength="187.3066" x="30.4541" y="1103.9043">Restituzione HTTP 201 Created</text><ellipse cx="124.1074" cy="1147.7344" fill="none" rx="11" ry="11" style="stroke:#222222;stroke-width:1;"/><ellipse cx="124.1074" cy="1147.7344" fill="#222222" rx="6" ry="6" style="stroke:#222222;stroke-width:1;"/><rect fill="#F1F1F1" height="47.9375" rx="12.5" ry="12.5" style="stroke:#181818;stroke-width:0.5;" width="197.0352" x="257.2148" y="838.9531"/><text fill="#000000" font-family="sans-serif" font-size="12" lengthAdjust="spacing" textLength="176.9941" x="267.2148" y="860.0918">Errore: il veicolo possiede gi&#224;</text><text fill="#000000" font-family="sans-serif" font-size="12" lengthAdjust="spacing" textLength="177.0352" x="267.2148" y="874.0605">una prenotazione nella fascia</text><rect fill="#F1F1F1" height="47.9375" rx="12.5" ry="12.5" style="stroke:#181818;stroke-width:0.5;" width="213.459" x="484.25" y="737.0156"/><text fill="#000000" font-family="sans-serif" font-size="12" lengthAdjust="spacing" textLength="193.459" x="494.25" y="758.1543">Errore: parcheggio gi&#224; occupato</text><text fill="#000000" font-family="sans-serif" font-size="12" lengthAdjust="spacing" textLength="123.252" x="494.25" y="772.123">nella fascia richiesta</text><polygon fill="#F1F1F1" points="415.4497,1168.7344,427.4497,1180.7344,415.4497,1192.7344,403.4497,1180.7344,415.4497,1168.7344" style="stroke:#181818;stroke-width:0.5;"/><rect fill="#F1F1F1" height="33.9688" rx="12.5" ry="12.5" style="stroke:#181818;stroke-width:0.5;" width="227.3164" x="723.2458" y="635.0781"/><text fill="#000000" font-family="sans-serif" font-size="12" lengthAdjust="spacing" textLength="207.3164" x="733.2458" y="656.2168">Errore: parcheggio non disponibile</text><polygon fill="#F1F1F1" points="628.4084,1198.7344,640.4084,1210.7344,628.4084,1222.7344,616.4084,1210.7344,628.4084,1198.7344" style="stroke:#181818;stroke-width:0.5;"/><rect fill="#F1F1F1" height="47.9375" rx="12.5" ry="12.5" style="stroke:#181818;stroke-width:0.5;" width="199.6895" x="980.5623" y="601.0781"/><text fill="#000000" font-family="sans-serif" font-size="12" lengthAdjust="spacing" textLength="161.0625" x="990.5623" y="622.2168">Errore: veicolo non trovato</text><text fill="#000000" font-family="sans-serif" font-size="12" lengthAdjust="spacing" textLength="179.6895" x="990.5623" y="636.1855">o non appartenente all'utente</text><polygon fill="#F1F1F1" points="852.1761,1228.7344,864.1761,1240.7344,852.1761,1252.7344,840.1761,1240.7344,852.1761,1228.7344" style="stroke:#181818;stroke-width:0.5;"/><rect fill="#F1F1F1" height="33.9688" rx="12.5" ry="12.5" style="stroke:#181818;stroke-width:0.5;" width="206.0293" x="1210.2517" y="513.1094"/><text fill="#000000" font-family="sans-serif" font-size="12" lengthAdjust="spacing" textLength="186.0293" x="1220.2517" y="534.248">Errore: parcheggio non trovato</text><polygon fill="#F1F1F1" points="1082.7213,1258.7344,1094.7213,1270.7344,1082.7213,1282.7344,1070.7213,1270.7344,1082.7213,1258.7344" style="stroke:#181818;stroke-width:0.5;"/><rect fill="#F1F1F1" height="33.9688" rx="12.5" ry="12.5" style="stroke:#181818;stroke-width:0.5;" width="205.4199" x="1442.9626" y="371.1719"/><text fill="#000000" font-family="sans-serif" font-size="12" lengthAdjust="spacing" textLength="185.4199" x="1452.9626" y="392.3105">Errore: fascia oraria non valida</text><polygon fill="#F1F1F1" points="1315.8561,1288.7344,1327.8561,1300.7344,1315.8561,1312.7344,1303.8561,1300.7344,1315.8561,1288.7344" style="stroke:#181818;stroke-width:0.5;"/><rect fill="#F1F1F1" height="33.9688" rx="12.5" ry="12.5" style="stroke:#181818;stroke-width:0.5;" width="177.6816" x="1227.0153" y="1332.7344"/><text fill="#000000" font-family="sans-serif" font-size="12" lengthAdjust="spacing" textLength="157.6816" x="1237.0153" y="1353.873">Rollback della transazione</text><rect fill="#F1F1F1" height="33.9688" rx="12.5" ry="12.5" style="stroke:#181818;stroke-width:0.5;" width="234.2129" x="1198.7497" y="1386.7031"/><text fill="#000000" font-family="sans-serif" font-size="12" lengthAdjust="spacing" textLength="214.2129" x="1208.7497" y="1407.8418">Restituzione della risposta di errore</text><ellipse cx="1315.8561" cy="1451.6719" fill="none" rx="11" ry="11" style="stroke:#222222;stroke-width:1;"/><ellipse cx="1315.8561" cy="1451.6719" fill="#222222" rx="6" ry="6" style="stroke:#222222;stroke-width:1;"/><rect fill="#F1F1F1" height="33.9688" rx="12.5" ry="12.5" style="stroke:#181818;stroke-width:0.5;" width="240.1191" x="1676.6842" y="229.2344"/><text fill="#000000" font-family="sans-serif" font-size="12" lengthAdjust="spacing" textLength="220.1191" x="1686.6842" y="250.373">Restituzione HTTP 401 Unauthorized</text><ellipse cx="1796.7438" cy="294.2031" fill="none" rx="11" ry="11" style="stroke:#222222;stroke-width:1;"/><ellipse cx="1796.7438" cy="294.2031" fill="#222222" rx="6" ry="6" style="stroke:#222222;stroke-width:1;"/><line style="stroke:#181818;stroke-width:1;" x1="1555.4899" x2="1555.4899" y1="67.2969" y2="87.2969"/><polygon fill="#181818" points="1551.4899,77.2969,1555.4899,87.2969,1559.4899,77.2969,1555.4899,81.2969" style="stroke:#181818;stroke-width:1;"/><line style="stroke:#181818;stroke-width:1;" x1="1555.4899" x2="1555.4899" y1="121.2656" y2="141.2656"/><polygon fill="#181818" points="1551.4899,131.2656,1555.4899,141.2656,1559.4899,131.2656,1555.4899,135.2656" style="stroke:#181818;stroke-width:1;"/><line style="stroke:#181818;stroke-width:1;" x1="1315.8561" x2="1315.8561" y1="263.2031" y2="283.2031"/><polygon fill="#181818" points="1311.8561,273.2031,1315.8561,283.2031,1319.8561,273.2031,1315.8561,277.2031" style="stroke:#181818;stroke-width:1;"/><line style="stroke:#181818;stroke-width:1;" x1="1082.7213" x2="1082.7213" y1="405.1406" y2="425.1406"/><polygon fill="#181818" points="1078.7213,415.1406,1082.7213,425.1406,1086.7213,415.1406,1082.7213,419.1406" style="stroke:#181818;stroke-width:1;"/><line style="stroke:#181818;stroke-width:1;" x1="124.1074" x2="124.1074" y1="872.9219" y2="906.8906"/><polygon fill="#181818" points="120.1074,896.8906,124.1074,906.8906,128.1074,896.8906,124.1074,900.8906" style="stroke:#181818;stroke-width:1;"/><line style="stroke:#181818;stroke-width:1;" x1="124.1074" x2="124.1074" y1="954.8281" y2="974.8281"/><polygon fill="#181818" points="120.1074,964.8281,124.1074,974.8281,128.1074,964.8281,124.1074,968.8281" style="stroke:#181818;stroke-width:1;"/><line style="stroke:#181818;stroke-width:1;" x1="124.1074" x2="124.1074" y1="1008.7969" y2="1028.7969"/><polygon fill="#181818" points="120.1074,1018.7969,124.1074,1028.7969,128.1074,1018.7969,124.1074,1022.7969" style="stroke:#181818;stroke-width:1;"/><line style="stroke:#181818;stroke-width:1;" x1="124.1074" x2="124.1074" y1="1062.7656" y2="1082.7656"/><polygon fill="#181818" points="120.1074,1072.7656,124.1074,1082.7656,128.1074,1072.7656,124.1074,1076.7656" style="stroke:#181818;stroke-width:1;"/><line style="stroke:#181818;stroke-width:1;" x1="124.1074" x2="124.1074" y1="1116.7344" y2="1136.7344"/><polygon fill="#181818" points="120.1074,1126.7344,124.1074,1136.7344,128.1074,1126.7344,124.1074,1130.7344" style="stroke:#181818;stroke-width:1;"/><line style="stroke:#181818;stroke-width:1;" x1="154.8516" x2="124.1074" y1="816.9531" y2="816.9531"/><line style="stroke:#181818;stroke-width:1;" x1="124.1074" x2="124.1074" y1="816.9531" y2="838.9531"/><polygon fill="#181818" points="120.1074,828.9531,124.1074,838.9531,128.1074,828.9531,124.1074,832.9531" style="stroke:#181818;stroke-width:1;"/><line style="stroke:#181818;stroke-width:1;" x1="324.9883" x2="355.7324" y1="816.9531" y2="816.9531"/><line style="stroke:#181818;stroke-width:1;" x1="355.7324" x2="355.7324" y1="816.9531" y2="838.9531"/><polygon fill="#181818" points="351.7324,828.9531,355.7324,838.9531,359.7324,828.9531,355.7324,832.9531" style="stroke:#181818;stroke-width:1;"/><line style="stroke:#181818;stroke-width:1;" x1="355.7324" x2="355.7324" y1="886.8906" y2="1180.7344"/><line style="stroke:#181818;stroke-width:1;" x1="355.7324" x2="403.4497" y1="1180.7344" y2="1180.7344"/><polygon fill="#181818" points="393.4497,1176.7344,403.4497,1180.7344,393.4497,1184.7344,397.4497,1180.7344" style="stroke:#181818;stroke-width:1;"/><line style="stroke:#181818;stroke-width:1;" x1="239.9199" x2="239.9199" y1="784.9531" y2="804.9531"/><polygon fill="#181818" points="235.9199,794.9531,239.9199,804.9531,243.9199,794.9531,239.9199,798.9531" style="stroke:#181818;stroke-width:1;"/><line style="stroke:#181818;stroke-width:1;" x1="319.6204" x2="239.9199" y1="715.0156" y2="715.0156"/><line style="stroke:#181818;stroke-width:1;" x1="239.9199" x2="239.9199" y1="715.0156" y2="737.0156"/><polygon fill="#181818" points="235.9199,727.0156,239.9199,737.0156,243.9199,727.0156,239.9199,731.0156" style="stroke:#181818;stroke-width:1;"/><line style="stroke:#181818;stroke-width:1;" x1="511.2791" x2="590.9795" y1="715.0156" y2="715.0156"/><line style="stroke:#181818;stroke-width:1;" x1="590.9795" x2="590.9795" y1="715.0156" y2="737.0156"/><polygon fill="#181818" points="586.9795,727.0156,590.9795,737.0156,594.9795,727.0156,590.9795,731.0156" style="stroke:#181818;stroke-width:1;"/><line style="stroke:#181818;stroke-width:1;" x1="590.9795" x2="590.9795" y1="784.9531" y2="1180.7344"/><line style="stroke:#181818;stroke-width:1;" x1="590.9795" x2="427.4497" y1="1180.7344" y2="1180.7344"/><polygon fill="#181818" points="437.4497,1176.7344,427.4497,1180.7344,437.4497,1184.7344,433.4497,1180.7344" style="stroke:#181818;stroke-width:1;"/><line style="stroke:#181818;stroke-width:1;" x1="415.4497" x2="415.4497" y1="683.0156" y2="703.0156"/><polygon fill="#181818" points="411.4497,693.0156,415.4497,703.0156,419.4497,693.0156,415.4497,697.0156" style="stroke:#181818;stroke-width:1;"/><line style="stroke:#181818;stroke-width:1;" x1="558.5295" x2="415.4497" y1="613.0781" y2="613.0781"/><line style="stroke:#181818;stroke-width:1;" x1="415.4497" x2="415.4497" y1="613.0781" y2="635.0781"/><polygon fill="#181818" points="411.4497,625.0781,415.4497,635.0781,419.4497,625.0781,415.4497,629.0781" style="stroke:#181818;stroke-width:1;"/><line style="stroke:#181818;stroke-width:1;" x1="698.2874" x2="836.9041" y1="613.0781" y2="613.0781"/><line style="stroke:#181818;stroke-width:1;" x1="836.9041" x2="836.9041" y1="613.0781" y2="635.0781"/><polygon fill="#181818" points="832.9041,625.0781,836.9041,635.0781,840.9041,625.0781,836.9041,629.0781" style="stroke:#181818;stroke-width:1;"/><line style="stroke:#181818;stroke-width:1;" x1="415.4497" x2="415.4497" y1="1192.7344" y2="1210.7344"/><line style="stroke:#181818;stroke-width:1;" x1="415.4497" x2="616.4084" y1="1210.7344" y2="1210.7344"/><polygon fill="#181818" points="606.4084,1206.7344,616.4084,1210.7344,606.4084,1214.7344,610.4084,1210.7344" style="stroke:#181818;stroke-width:1;"/><line style="stroke:#181818;stroke-width:1;" x1="836.9041" x2="836.9041" y1="669.0469" y2="1210.7344"/><line style="stroke:#181818;stroke-width:1;" x1="836.9041" x2="640.4084" y1="1210.7344" y2="1210.7344"/><polygon fill="#181818" points="650.4084,1206.7344,640.4084,1210.7344,650.4084,1214.7344,646.4084,1210.7344" style="stroke:#181818;stroke-width:1;"/><line style="stroke:#181818;stroke-width:1;" x1="750.3929" x2="628.4084" y1="579.0781" y2="579.0781"/><line style="stroke:#181818;stroke-width:1;" x1="628.4084" x2="628.4084" y1="579.0781" y2="601.0781"/><polygon fill="#181818" points="624.4084,591.0781,628.4084,601.0781,632.4084,591.0781,628.4084,595.0781" style="stroke:#181818;stroke-width:1;"/><line style="stroke:#181818;stroke-width:1;" x1="953.9594" x2="1080.407" y1="579.0781" y2="579.0781"/><line style="stroke:#181818;stroke-width:1;" x1="1080.407" x2="1080.407" y1="579.0781" y2="601.0781"/><polygon fill="#181818" points="1076.407,591.0781,1080.407,601.0781,1084.407,591.0781,1080.407,595.0781" style="stroke:#181818;stroke-width:1;"/><line style="stroke:#181818;stroke-width:1;" x1="628.4084" x2="628.4084" y1="1222.7344" y2="1240.7344"/><line style="stroke:#181818;stroke-width:1;" x1="628.4084" x2="840.1761" y1="1240.7344" y2="1240.7344"/><polygon fill="#181818" points="830.1761,1236.7344,840.1761,1240.7344,830.1761,1244.7344,834.1761,1240.7344" style="stroke:#181818;stroke-width:1;"/><line style="stroke:#181818;stroke-width:1;" x1="1080.407" x2="1080.407" y1="649.0156" y2="1240.7344"/><line style="stroke:#181818;stroke-width:1;" x1="1080.407" x2="864.1761" y1="1240.7344" y2="1240.7344"/><polygon fill="#181818" points="874.1761,1236.7344,864.1761,1240.7344,874.1761,1244.7344,870.1761,1240.7344" style="stroke:#181818;stroke-width:1;"/><line style="stroke:#181818;stroke-width:1;" x1="852.1761" x2="852.1761" y1="547.0781" y2="567.0781"/><polygon fill="#181818" points="848.1761,557.0781,852.1761,567.0781,856.1761,557.0781,852.1761,561.0781" style="stroke:#181818;stroke-width:1;"/><line style="stroke:#181818;stroke-width:1;" x1="1010.1273" x2="852.1761" y1="491.1094" y2="491.1094"/><line style="stroke:#181818;stroke-width:1;" x1="852.1761" x2="852.1761" y1="491.1094" y2="513.1094"/><polygon fill="#181818" points="848.1761,503.1094,852.1761,513.1094,856.1761,503.1094,852.1761,507.1094" style="stroke:#181818;stroke-width:1;"/><line style="stroke:#181818;stroke-width:1;" x1="1155.3152" x2="1313.2664" y1="491.1094" y2="491.1094"/><line style="stroke:#181818;stroke-width:1;" x1="1313.2664" x2="1313.2664" y1="491.1094" y2="513.1094"/><polygon fill="#181818" points="1309.2664,503.1094,1313.2664,513.1094,1317.2664,503.1094,1313.2664,507.1094" style="stroke:#181818;stroke-width:1;"/><line style="stroke:#181818;stroke-width:1;" x1="852.1761" x2="852.1761" y1="1252.7344" y2="1270.7344"/><line style="stroke:#181818;stroke-width:1;" x1="852.1761" x2="1070.7213" y1="1270.7344" y2="1270.7344"/><polygon fill="#181818" points="1060.7213,1266.7344,1070.7213,1270.7344,1060.7213,1274.7344,1064.7213,1270.7344" style="stroke:#181818;stroke-width:1;"/><line style="stroke:#181818;stroke-width:1;" x1="1313.2664" x2="1313.2664" y1="547.0781" y2="1270.7344"/><line style="stroke:#181818;stroke-width:1;" x1="1313.2664" x2="1094.7213" y1="1270.7344" y2="1270.7344"/><polygon fill="#181818" points="1104.7213,1266.7344,1094.7213,1270.7344,1104.7213,1274.7344,1100.7213,1270.7344" style="stroke:#181818;stroke-width:1;"/><line style="stroke:#181818;stroke-width:1;" x1="1082.7213" x2="1082.7213" y1="459.1094" y2="479.1094"/><polygon fill="#181818" points="1078.7213,469.1094,1082.7213,479.1094,1086.7213,469.1094,1082.7213,473.1094" style="stroke:#181818;stroke-width:1;"/><line style="stroke:#181818;stroke-width:1;" x1="1247.4193" x2="1082.7213" y1="349.1719" y2="349.1719"/><line style="stroke:#181818;stroke-width:1;" x1="1082.7213" x2="1082.7213" y1="349.1719" y2="371.1719"/><polygon fill="#181818" points="1078.7213,361.1719,1082.7213,371.1719,1086.7213,361.1719,1082.7213,365.1719" style="stroke:#181818;stroke-width:1;"/><line style="stroke:#181818;stroke-width:1;" x1="1384.2929" x2="1545.6725" y1="349.1719" y2="349.1719"/><line style="stroke:#181818;stroke-width:1;" x1="1545.6725" x2="1545.6725" y1="349.1719" y2="371.1719"/><polygon fill="#181818" points="1541.6725,361.1719,1545.6725,371.1719,1549.6725,361.1719,1545.6725,365.1719" style="stroke:#181818;stroke-width:1;"/><line style="stroke:#181818;stroke-width:1;" x1="1082.7213" x2="1082.7213" y1="1282.7344" y2="1300.7344"/><line style="stroke:#181818;stroke-width:1;" x1="1082.7213" x2="1303.8561" y1="1300.7344" y2="1300.7344"/><polygon fill="#181818" points="1293.8561,1296.7344,1303.8561,1300.7344,1293.8561,1304.7344,1297.8561,1300.7344" style="stroke:#181818;stroke-width:1;"/><line style="stroke:#181818;stroke-width:1;" x1="1545.6725" x2="1545.6725" y1="405.1406" y2="1300.7344"/><line style="stroke:#181818;stroke-width:1;" x1="1545.6725" x2="1327.8561" y1="1300.7344" y2="1300.7344"/><polygon fill="#181818" points="1337.8561,1296.7344,1327.8561,1300.7344,1337.8561,1304.7344,1333.8561,1300.7344" style="stroke:#181818;stroke-width:1;"/><line style="stroke:#181818;stroke-width:1;" x1="1315.8561" x2="1315.8561" y1="317.1719" y2="337.1719"/><polygon fill="#181818" points="1311.8561,327.1719,1315.8561,337.1719,1319.8561,327.1719,1315.8561,331.1719" style="stroke:#181818;stroke-width:1;"/><line style="stroke:#181818;stroke-width:1;" x1="1315.8561" x2="1315.8561" y1="1312.7344" y2="1332.7344"/><polygon fill="#181818" points="1311.8561,1322.7344,1315.8561,1332.7344,1319.8561,1322.7344,1315.8561,1326.7344" style="stroke:#181818;stroke-width:1;"/><line style="stroke:#181818;stroke-width:1;" x1="1315.8561" x2="1315.8561" y1="1366.7031" y2="1386.7031"/><polygon fill="#181818" points="1311.8561,1376.7031,1315.8561,1386.7031,1319.8561,1376.7031,1315.8561,1380.7031" style="stroke:#181818;stroke-width:1;"/><line style="stroke:#181818;stroke-width:1;" x1="1315.8561" x2="1315.8561" y1="1420.6719" y2="1440.6719"/><polygon fill="#181818" points="1311.8561,1430.6719,1315.8561,1440.6719,1319.8561,1430.6719,1315.8561,1434.6719" style="stroke:#181818;stroke-width:1;"/><line style="stroke:#181818;stroke-width:1;" x1="1796.7438" x2="1796.7438" y1="263.2031" y2="283.2031"/><polygon fill="#181818" points="1792.7438,273.2031,1796.7438,283.2031,1800.7438,273.2031,1796.7438,277.2031" style="stroke:#181818;stroke-width:1;"/><line style="stroke:#181818;stroke-width:1;" x1="1511.8649" x2="1315.8561" y1="207.2344" y2="207.2344"/><line style="stroke:#181818;stroke-width:1;" x1="1315.8561" x2="1315.8561" y1="207.2344" y2="229.2344"/><polygon fill="#181818" points="1311.8561,219.2344,1315.8561,229.2344,1319.8561,219.2344,1315.8561,223.2344" style="stroke:#181818;stroke-width:1;"/><line style="stroke:#181818;stroke-width:1;" x1="1599.1149" x2="1796.7438" y1="207.2344" y2="207.2344"/><line style="stroke:#181818;stroke-width:1;" x1="1796.7438" x2="1796.7438" y1="207.2344" y2="229.2344"/><polygon fill="#181818" points="1792.7438,219.2344,1796.7438,229.2344,1800.7438,219.2344,1796.7438,223.2344" style="stroke:#181818;stroke-width:1;"/><line style="stroke:#181818;stroke-width:1;" x1="1555.4899" x2="1555.4899" y1="175.2344" y2="195.2344"/><polygon fill="#181818" points="1551.4899,185.2344,1555.4899,195.2344,1559.4899,185.2344,1555.4899,189.2344" style="stroke:#181818;stroke-width:1;"/><?plantuml-src bPNDZjD03CVlUGhVw4f8V8XJUq2x5GWuGDMMvTABcxYjnNGccfb4Ofzc7u2tw8lXcQHfFa7S4jV-__xns5FFNX4iBU4J6qsGCHGQ8RUaZQzYIU8yMfyayy-wP0EMqnEJn63rRRE5LwrSNYJpJMvP7s53QM7P_uBKQ6-DKWYiuCkFxI99-00pUO8I5MVc_Htu4scORIw_xv84O7vV1av6eSXRrAuoieW_FeQYgzkOSa2NCeAnQ1bZKW1yR4Sh50vGehSMepdPYlUYyAGzYMbhmyEYJdfG9aqDvEGSdzbvbXTNACZHfYSw7jdKcO6yQe90JfA3q0ZvBx8boPEwQbQgZrKCC1UeQ4QVs5WU1Gpyu9uLU_Hc8bqyBUlp4YUcj48pZkFPxlJe5uzo5Ez3ItNhV2Q9_sRssp5iol_n0l4syU7OfOFiBy-mQitzOb1qxvmHvTkcnCw_tEdQ8D1KUsBv1bM97cE3n2bayh97Dm9QclEP_SG6T3BNieZiYyhIf-rs1MzVludxx2aRf3jlycwCb2EOVJN33dsmrbYQXwszVfuSYsFA28vyUTxf_aNHQN-FJJhZGpiq0MwmjqP66iYY5BaCxawtARVBgCFhqKPPOoHjj9ohosNoP57QxUueZkWrQjTU1IcPwJ9QhbudDhUXj1W3mfJR6b5hD0gz-gQwSrL6WUfYZFLDzNmjkxZ7zEVO1FQ7hagneMlXFq7MWY8iIbO3rt4pChBlP6I_QopyoLX-gkUsBWsU_W00?></g></svg>