<?plantuml 1.2026.2?><svg xmlns="http://www.w3.org/2000/svg" xmlns:xlink="http://www.w3.org/1999/xlink" contentStyleType="text/css" data-diagram-type="ACTIVITY" height="759px" preserveAspectRatio="none" style="width:760px;height:759px;background:#FFFFFF;" version="1.1" viewBox="0 0 760 759" width="760px" zoomAndPan="magnify"><title>Cancellazione di una prenotazione</title><defs/><g><g class="title" data-source-line="1"><text fill="#000000" font-family="sans-serif" font-size="14" font-weight="bold" lengthAdjust="spacing" textLength="271.5508" x="243.2207" y="32.9951">Cancellazione di una prenotazione</text></g><ellipse cx="438.428" cy="57.2969" fill="#222222" rx="10" ry="10" style="stroke:#222222;stroke-width:1;"/><rect fill="#F1F1F1" height="47.9375" rx="12.5" ry="12.5" style="stroke:#181818;stroke-width:0.5;" width="178.9766" x="348.9397" y="87.2969"/><text fill="#000000" font-family="sans-serif" font-size="12" lengthAdjust="spacing" textLength="84.2344" x="358.9397" y="108.4355">Invio richiesta</text><text fill="#000000" font-family="sans-serif" font-size="12" lengthAdjust="spacing" textLength="158.9766" x="358.9397" y="122.4043">DELETE /prenotazioni/{id}</text><rect fill="#F1F1F1" height="33.9688" rx="12.5" ry="12.5" style="stroke:#181818;stroke-width:0.5;" width="205.209" x="335.8235" y="155.2344"/><text fill="#000000" font-family="sans-serif" font-size="12" lengthAdjust="spacing" textLength="185.209" x="345.8235" y="176.373">Spring Security controlla il JWT</text><polygon fill="#F1F1F1" points="406.803,209.2031,470.053,209.2031,482.053,221.2031,470.053,233.2031,406.803,233.2031,394.803,221.2031,406.803,209.2031" style="stroke:#181818;stroke-width:0.5;"/><text fill="#000000" font-family="sans-serif" font-size="11" lengthAdjust="spacing" textLength="63.25" x="406.803" y="225.0112">JWT valido?</text><text fill="#000000" font-family="sans-serif" font-size="11" lengthAdjust="spacing" textLength="10.0386" x="384.7644" y="218.6089">S&#236;</text><text fill="#000000" font-family="sans-serif" font-size="11" lengthAdjust="spacing" textLength="14.9585" x="482.053" y="218.6089">No</text><rect fill="#F1F1F1" height="33.9688" rx="12.5" ry="12.5" style="stroke:#181818;stroke-width:0.5;" width="159.9043" x="166.9712" y="243.2031"/><text fill="#000000" font-family="sans-serif" font-size="12" lengthAdjust="spacing" textLength="139.9043" x="176.9712" y="264.3418">Avvio della transazione</text><rect fill="#F1F1F1" height="47.9375" rx="12.5" ry="12.5" style="stroke:#181818;stroke-width:0.5;" width="200.0645" x="146.8911" y="297.1719"/><text fill="#000000" font-family="sans-serif" font-size="12" lengthAdjust="spacing" textLength="180.0645" x="156.8911" y="318.3105">Recupero dell'utente corrente</text><text fill="#000000" font-family="sans-serif" font-size="12" lengthAdjust="spacing" textLength="81.1348" x="156.8911" y="332.2793">tramite il JWT</text><rect fill="#F1F1F1" height="47.9375" rx="12.5" ry="12.5" style="stroke:#181818;stroke-width:0.5;" width="180.0898" x="156.8784" y="365.1094"/><text fill="#000000" font-family="sans-serif" font-size="12" lengthAdjust="spacing" textLength="160.0898" x="166.8784" y="386.248">Ricerca della prenotazione</text><text fill="#000000" font-family="sans-serif" font-size="12" lengthAdjust="spacing" textLength="90.9258" x="166.8784" y="400.2168">per ID e utente</text><polygon fill="#F1F1F1" points="186.332,433.0469,307.5146,433.0469,319.5146,445.0469,307.5146,457.0469,186.332,457.0469,174.332,445.0469,186.332,433.0469" style="stroke:#181818;stroke-width:0.5;"/><text fill="#000000" font-family="sans-serif" font-size="11" lengthAdjust="spacing" textLength="121.1826" x="186.332" y="448.855">Prenotazione trovata?</text><text fill="#000000" font-family="sans-serif" font-size="11" lengthAdjust="spacing" textLength="10.0386" x="164.2935" y="442.4526">S&#236;</text><text fill="#000000" font-family="sans-serif" font-size="11" lengthAdjust="spacing" textLength="14.9585" x="319.5146" y="442.4526">No</text><rect fill="#F1F1F1" height="33.9688" rx="12.5" ry="12.5" style="stroke:#181818;stroke-width:0.5;" width="211.748" x="18.8311" y="467.0469"/><text fill="#000000" font-family="sans-serif" font-size="12" lengthAdjust="spacing" textLength="191.748" x="28.8311" y="488.1855">Eliminazione della prenotazione</text><rect fill="#F1F1F1" height="33.9688" rx="12.5" ry="12.5" style="stroke:#181818;stroke-width:0.5;" width="194.334" x="27.5381" y="534.9844"/><text fill="#000000" font-family="sans-serif" font-size="12" lengthAdjust="spacing" textLength="174.334" x="37.5381" y="556.123">Aggiornamento del database</text><rect fill="#F1F1F1" height="33.9688" rx="12.5" ry="12.5" style="stroke:#181818;stroke-width:0.5;" width="173.9551" x="37.7275" y="602.9219"/><text fill="#000000" font-family="sans-serif" font-size="12" lengthAdjust="spacing" textLength="153.9551" x="47.7275" y="624.0605">Commit della transazione</text><rect fill="#F1F1F1" height="33.9688" rx="12.5" ry="12.5" style="stroke:#181818;stroke-width:0.5;" width="227.4102" x="11" y="670.8594"/><text fill="#000000" font-family="sans-serif" font-size="12" lengthAdjust="spacing" textLength="207.4102" x="21" y="691.998">Restituzione HTTP 204 No Content</text><ellipse cx="124.7051" cy="737.8281" fill="none" rx="11" ry="11" style="stroke:#222222;stroke-width:1;"/><ellipse cx="124.7051" cy="737.8281" fill="#222222" rx="6" ry="6" style="stroke:#222222;stroke-width:1;"/><rect fill="#F1F1F1" height="47.9375" rx="12.5" ry="12.5" style="stroke:#181818;stroke-width:0.5;" width="193.1152" x="272.584" y="467.0469"/><text fill="#000000" font-family="sans-serif" font-size="12" lengthAdjust="spacing" textLength="164.625" x="282.584" y="488.1855">Generazione dell'eccezione</text><text fill="#000000" font-family="sans-serif" font-size="12" lengthAdjust="spacing" textLength="173.1152" x="282.584" y="502.1543">RisorsaNonTrovataException</text><rect fill="#F1F1F1" height="33.9688" rx="12.5" ry="12.5" style="stroke:#181818;stroke-width:0.5;" width="177.6816" x="280.3008" y="548.9531"/><text fill="#000000" font-family="sans-serif" font-size="12" lengthAdjust="spacing" textLength="157.6816" x="290.3008" y="570.0918">Rollback della transazione</text><rect fill="#F1F1F1" height="33.9688" rx="12.5" ry="12.5" style="stroke:#181818;stroke-width:0.5;" width="221.4629" x="258.4102" y="616.8906"/><text fill="#000000" font-family="sans-serif" font-size="12" lengthAdjust="spacing" textLength="201.4629" x="268.4102" y="638.0293">Restituzione HTTP 404 Not Found</text><ellipse cx="369.1416" cy="695.8281" fill="none" rx="11" ry="11" style="stroke:#222222;stroke-width:1;"/><ellipse cx="369.1416" cy="695.8281" fill="#222222" rx="6" ry="6" style="stroke:#222222;stroke-width:1;"/><rect fill="#F1F1F1" height="33.9688" rx="12.5" ry="12.5" style="stroke:#181818;stroke-width:0.5;" width="240.1191" x="509.873" y="243.2031"/><text fill="#000000" font-family="sans-serif" font-size="12" lengthAdjust="spacing" textLength="220.1191" x="519.873" y="264.3418">Restituzione HTTP 401 Unauthorized</text><ellipse cx="629.9326" cy="308.1719" fill="none" rx="11" ry="11" style="stroke:#222222;stroke-width:1;"/><ellipse cx="629.9326" cy="308.1719" fill="#222222" rx="6" ry="6" style="stroke:#222222;stroke-width:1;"/><line style="stroke:#181818;stroke-width:1;" x1="438.428" x2="438.428" y1="67.2969" y2="87.2969"/><polygon fill="#181818" points="434.428,77.2969,438.428,87.2969,442.428,77.2969,438.428,81.2969" style="stroke:#181818;stroke-width:1;"/><line style="stroke:#181818;stroke-width:1;" x1="438.428" x2="438.428" y1="135.2344" y2="155.2344"/><polygon fill="#181818" points="434.428,145.2344,438.428,155.2344,442.428,145.2344,438.428,149.2344" style="stroke:#181818;stroke-width:1;"/><line style="stroke:#181818;stroke-width:1;" x1="246.9233" x2="246.9233" y1="277.1719" y2="297.1719"/><polygon fill="#181818" points="242.9233,287.1719,246.9233,297.1719,250.9233,287.1719,246.9233,291.1719" style="stroke:#181818;stroke-width:1;"/><line style="stroke:#181818;stroke-width:1;" x1="246.9233" x2="246.9233" y1="345.1094" y2="365.1094"/><polygon fill="#181818" points="242.9233,355.1094,246.9233,365.1094,250.9233,355.1094,246.9233,359.1094" style="stroke:#181818;stroke-width:1;"/><line style="stroke:#181818;stroke-width:1;" x1="124.7051" x2="124.7051" y1="501.0156" y2="534.9844"/><polygon fill="#181818" points="120.7051,524.9844,124.7051,534.9844,128.7051,524.9844,124.7051,528.9844" style="stroke:#181818;stroke-width:1;"/><line style="stroke:#181818;stroke-width:1;" x1="124.7051" x2="124.7051" y1="568.9531" y2="602.9219"/><polygon fill="#181818" points="120.7051,592.9219,124.7051,602.9219,128.7051,592.9219,124.7051,596.9219" style="stroke:#181818;stroke-width:1;"/><line style="stroke:#181818;stroke-width:1;" x1="124.7051" x2="124.7051" y1="636.8906" y2="670.8594"/><polygon fill="#181818" points="120.7051,660.8594,124.7051,670.8594,128.7051,660.8594,124.7051,664.8594" style="stroke:#181818;stroke-width:1;"/><line style="stroke:#181818;stroke-width:1;" x1="124.7051" x2="124.7051" y1="704.8281" y2="726.8281"/><polygon fill="#181818" points="120.7051,716.8281,124.7051,726.8281,128.7051,716.8281,124.7051,720.8281" style="stroke:#181818;stroke-width:1;"/><line style="stroke:#181818;stroke-width:1;" x1="369.1416" x2="369.1416" y1="514.9844" y2="548.9531"/><polygon fill="#181818" points="365.1416,538.9531,369.1416,548.9531,373.1416,538.9531,369.1416,542.9531" style="stroke:#181818;stroke-width:1;"/><line style="stroke:#181818;stroke-width:1;" x1="369.1416" x2="369.1416" y1="582.9219" y2="616.8906"/><polygon fill="#181818" points="365.1416,606.8906,369.1416,616.8906,373.1416,606.8906,369.1416,610.8906" style="stroke:#181818;stroke-width:1;"/><line style="stroke:#181818;stroke-width:1;" x1="369.1416" x2="369.1416" y1="650.8594" y2="684.8281"/><polygon fill="#181818" points="365.1416,674.8281,369.1416,684.8281,373.1416,674.8281,369.1416,678.8281" style="stroke:#181818;stroke-width:1;"/><line style="stroke:#181818;stroke-width:1;" x1="174.332" x2="124.7051" y1="445.0469" y2="445.0469"/><line style="stroke:#181818;stroke-width:1;" x1="124.7051" x2="124.7051" y1="445.0469" y2="467.0469"/><polygon fill="#181818" points="120.7051,457.0469,124.7051,467.0469,128.7051,457.0469,124.7051,461.0469" style="stroke:#181818;stroke-width:1;"/><line style="stroke:#181818;stroke-width:1;" x1="319.5146" x2="369.1416" y1="445.0469" y2="445.0469"/><line style="stroke:#181818;stroke-width:1;" x1="369.1416" x2="369.1416" y1="445.0469" y2="467.0469"/><polygon fill="#181818" points="365.1416,457.0469,369.1416,467.0469,373.1416,457.0469,369.1416,461.0469" style="stroke:#181818;stroke-width:1;"/><line style="stroke:#181818;stroke-width:1;" x1="246.9233" x2="246.9233" y1="413.0469" y2="433.0469"/><polygon fill="#181818" points="242.9233,423.0469,246.9233,433.0469,250.9233,423.0469,246.9233,427.0469" style="stroke:#181818;stroke-width:1;"/><line style="stroke:#181818;stroke-width:1;" x1="629.9326" x2="629.9326" y1="277.1719" y2="297.1719"/><polygon fill="#181818" points="625.9326,287.1719,629.9326,297.1719,633.9326,287.1719,629.9326,291.1719" style="stroke:#181818;stroke-width:1;"/><line style="stroke:#181818;stroke-width:1;" x1="394.803" x2="246.9233" y1="221.2031" y2="221.2031"/><line style="stroke:#181818;stroke-width:1;" x1="246.9233" x2="246.9233" y1="221.2031" y2="243.2031"/><polygon fill="#181818" points="242.9233,233.2031,246.9233,243.2031,250.9233,233.2031,246.9233,237.2031" style="stroke:#181818;stroke-width:1;"/><line style="stroke:#181818;stroke-width:1;" x1="482.053" x2="629.9326" y1="221.2031" y2="221.2031"/><line style="stroke:#181818;stroke-width:1;" x1="629.9326" x2="629.9326" y1="221.2031" y2="243.2031"/><polygon fill="#181818" points="625.9326,233.2031,629.9326,243.2031,633.9326,233.2031,629.9326,237.2031" style="stroke:#181818;stroke-width:1;"/><line style="stroke:#181818;stroke-width:1;" x1="438.428" x2="438.428" y1="189.2031" y2="209.2031"/><polygon fill="#181818" points="434.428,199.2031,438.428,209.2031,442.428,199.2031,438.428,203.2031" style="stroke:#181818;stroke-width:1;"/><?plantuml-src bP71Ji9048RlVOgv0IVKS8A38L0LOmY16YzSbkq04zlPPZjj5ECR-HQ-cDCM28eUl4rc_lt_RsQ5944O6RQO96P7ZX5YWe8DP1xPITCBWboCbo3eJxWa1vxibb1xInw73s4KGlT4JjqtYjy7gbvaddW32xI59ta5wrYyqoIW1EwV8jNG6jfQGMaIYjrr1sIB3Et5vqSd203wmx8AZ2iy46yuRuW6zN2knXdwPjug15bGGxolYgLccPIqSmohdf15RytUyNJ99QiLJCQ0q3ZL3og-sObA8Lnfn9oHgdUOK4fyEEDPm60l6susv3oRL4DgT8ZLS6NoesBaKWN_O-jwxrn8YYReBefcS7NHWwc3aHvONVUwN5nMLPZa2EsfEt3U8gC_mMoXjRY_mPnovtCpTHmrYuOl5ZFHuJ5SFt1bxFD_y7erdi2DApZ-ISSnhOFW6-Il5fVmoAQGhVEqmyQbyQWTlW00?></g></svg>