<?plantuml 1.2026.2?><svg xmlns="http://www.w3.org/2000/svg" xmlns:xlink="http://www.w3.org/1999/xlink" contentStyleType="text/css" data-diagram-type="DESCRIPTION" height="898px" preserveAspectRatio="none" style="width:762px;height:898px;background:#FFFFFF;" version="1.1" viewBox="0 0 762 898" width="762px" zoomAndPan="magnify"><defs/><g><!--cluster Parking Spot--><g class="cluster" data-qualified-name="Parking Spot" data-source-line="8" id="ent0006"><rect fill="none" height="885" rx="2.5" ry="2.5" style="stroke:#181818;stroke-width:1;" width="260" x="386" y="7"/><text fill="#000000" font-family="sans-serif" font-size="14" font-weight="bold" lengthAdjust="spacing" textLength="101.999" x="465.0005" y="21.9951">Parking Spot</text></g><!--entity UC_Register--><g class="entity" data-qualified-name="Parking Spot.UC_Register" data-source-line="10" id="ent0007"><ellipse cx="516.1566" cy="57.0236" fill="#F1F1F1" rx="56.1566" ry="14.5236" style="stroke:#181818;stroke-width:0.5;"/><text fill="#000000" font-family="sans-serif" font-size="14" lengthAdjust="spacing" textLength="75.1748" x="478.5692" y="61.6721">Registrarsi</text></g><!--entity UC_Login--><g class="entity" data-qualified-name="Parking Spot.UC_Login" data-source-line="11" id="ent0008"><ellipse cx="515.8982" cy="124.0796" fill="#F1F1F1" rx="75.8982" ry="17.5796" style="stroke:#181818;stroke-width:0.5;"/><text fill="#000000" font-family="sans-serif" font-size="14" lengthAdjust="spacing" textLength="120.9004" x="455.448" y="128.7281">Effettuare il login</text></g><!--entity UC_Profile--><g class="entity" data-qualified-name="Parking Spot.UC_Profile" data-source-line="13" id="ent0009"><ellipse cx="516.1494" cy="380.0299" fill="#F1F1F1" rx="95.6494" ry="21.5299" style="stroke:#181818;stroke-width:0.5;"/><text fill="#000000" font-family="sans-serif" font-size="14" lengthAdjust="spacing" textLength="166.4209" x="432.9389" y="384.6783">Gestire il proprio profilo</text></g><!--entity UC_Vehicles--><g class="entity" data-qualified-name="Parking Spot.UC_Vehicles" data-source-line="14" id="ent0010"><ellipse cx="515.7534" cy="456.9507" fill="#F1F1F1" rx="90.2534" ry="20.4507" style="stroke:#181818;stroke-width:0.5;"/><text fill="#000000" font-family="sans-serif" font-size="14" lengthAdjust="spacing" textLength="154.3145" x="438.5962" y="461.5991">Gestire i propri veicoli</text></g><!--entity UC_Availability--><g class="entity" data-qualified-name="Parking Spot.UC_Availability" data-source-line="16" id="ent0011"><ellipse cx="515.752" cy="202.1504" fill="#F1F1F1" rx="113.752" ry="25.1504" style="stroke:#181818;stroke-width:0.5;"/><text fill="#000000" font-family="sans-serif" font-size="14" lengthAdjust="spacing" textLength="181.9863" x="424.7589" y="202.3199">Consultare la disponibilit&#224;</text><text fill="#000000" font-family="sans-serif" font-size="14" lengthAdjust="spacing" textLength="95.9082" x="467.7979" y="218.6168">dei parcheggi</text></g><!--entity UC_CreateBooking--><g class="entity" data-qualified-name="Parking Spot.UC_CreateBooking" data-source-line="17" id="ent0012"><ellipse cx="516.2354" cy="301.2471" fill="#F1F1F1" rx="99.2354" ry="22.2471" style="stroke:#181818;stroke-width:0.5;"/><text fill="#000000" font-family="sans-serif" font-size="14" lengthAdjust="spacing" textLength="174.3711" x="429.0498" y="305.8955">Creare una prenotazione</text></g><!--entity UC_ViewBookings--><g class="entity" data-qualified-name="Parking Spot.UC_ViewBookings" data-source-line="18" id="ent0013"><ellipse cx="515.9218" cy="537.1682" fill="#F1F1F1" rx="103.9218" ry="24.1682" style="stroke:#181818;stroke-width:0.5;"/><text fill="#000000" font-family="sans-serif" font-size="14" lengthAdjust="spacing" textLength="155.3945" x="438.2245" y="536.4557">Visualizzare le proprie</text><text fill="#000000" font-family="sans-serif" font-size="14" lengthAdjust="spacing" textLength="87.3291" x="472.2572" y="552.7525">prenotazioni</text></g><!--entity UC_DeleteBooking--><g class="entity" data-qualified-name="Parking Spot.UC_DeleteBooking" data-source-line="19" id="ent0014"><ellipse cx="515.9936" cy="620.2098" fill="#F1F1F1" rx="106.9936" ry="24.2098" style="stroke:#181818;stroke-width:0.5;"/><text fill="#000000" font-family="sans-serif" font-size="14" lengthAdjust="spacing" textLength="159.8105" x="436.0883" y="619.4322">Cancellare una propria</text><text fill="#000000" font-family="sans-serif" font-size="14" lengthAdjust="spacing" textLength="92.0527" x="469.9672" y="635.7291">prenotazione</text></g><!--entity UC_ManageParking--><g class="entity" data-qualified-name="Parking Spot.UC_ManageParking" data-source-line="21" id="ent0015"><ellipse cx="516.1428" cy="698.1286" fill="#F1F1F1" rx="81.1428" ry="18.6286" style="stroke:#181818;stroke-width:0.5;"/><text fill="#000000" font-family="sans-serif" font-size="14" lengthAdjust="spacing" textLength="133.3623" x="449.4617" y="702.777">Gestire i parcheggi</text></g><!--entity UC_AllBookings--><g class="entity" data-qualified-name="Parking Spot.UC_AllBookings" data-source-line="22" id="ent0016"><ellipse cx="516.1523" cy="775.8748" fill="#F1F1F1" rx="94.1523" ry="24.3748" style="stroke:#181818;stroke-width:0.5;"/><text fill="#000000" font-family="sans-serif" font-size="14" lengthAdjust="spacing" textLength="138.9951" x="446.6548" y="774.8408">Visualizzare tutte le</text><text fill="#000000" font-family="sans-serif" font-size="14" lengthAdjust="spacing" textLength="87.3291" x="472.4878" y="791.1376">prenotazioni</text></g><!--entity UC_AllUsers--><g class="entity" data-qualified-name="Parking Spot.UC_AllUsers" data-source-line="23" id="ent0017"><ellipse cx="516.0415" cy="856.1083" fill="#F1F1F1" rx="88.5415" ry="20.1083" style="stroke:#181818;stroke-width:0.5;"/><text fill="#000000" font-family="sans-serif" font-size="14" lengthAdjust="spacing" textLength="150.4316" x="440.8257" y="860.7567">Visualizzare gli utenti</text></g><!--entity Guest--><g class="entity" data-qualified-name="Guest" data-source-line="3" id="ent0002"><ellipse cx="257.3374" cy="94.5" fill="#F1F1F1" rx="8" ry="8" style="stroke:#181818;stroke-width:0.5;"/><path d="M257.3374,102.5 L257.3374,129.5 M244.3374,110.5 L270.3374,110.5 M257.3374,129.5 L244.3374,144.5 M257.3374,129.5 L270.3374,144.5" fill="none" style="stroke:#181818;stroke-width:0.5;"/><text fill="#000000" font-family="sans-serif" font-size="14" lengthAdjust="spacing" textLength="162.6748" x="176" y="158.9951">Utente non autenticato</text></g><!--entity User--><g class="entity" data-qualified-name="User" data-source-line="4" id="ent0003"><ellipse cx="257.4565" cy="427.5" fill="#F1F1F1" rx="8" ry="8" style="stroke:#181818;stroke-width:0.5;"/><path d="M257.4565,435.5 L257.4565,462.5 M244.4565,443.5 L270.4565,443.5 M257.4565,462.5 L244.4565,477.5 M257.4565,462.5 L270.4565,477.5" fill="none" style="stroke:#181818;stroke-width:0.5;"/><text fill="#000000" font-family="sans-serif" font-size="14" lengthAdjust="spacing" textLength="131.9131" x="191.5" y="491.9951">Utente autenticato</text></g><!--entity Admin--><g class="entity" data-qualified-name="Admin" data-source-line="5" id="ent0004"><ellipse cx="60.5234" cy="709.5" fill="#F1F1F1" rx="8" ry="8" style="stroke:#181818;stroke-width:0.5;"/><path d="M60.5234,717.5 L60.5234,744.5 M47.5234,725.5 L73.5234,725.5 M60.5234,744.5 L47.5234,759.5 M60.5234,744.5 L73.5234,759.5" fill="none" style="stroke:#181818;stroke-width:0.5;"/><text fill="#000000" font-family="sans-serif" font-size="14" lengthAdjust="spacing" textLength="109.0469" x="6" y="773.9951">Amministratore</text></g><!--entity Keycloak--><g class="entity" data-qualified-name="Keycloak" data-source-line="6" id="ent0005"><ellipse cx="724.459" cy="58.5" fill="#F1F1F1" rx="8" ry="8" style="stroke:#181818;stroke-width:0.5;"/><path d="M724.459,66.5 L724.459,93.5 M711.459,74.5 L737.459,74.5 M724.459,93.5 L711.459,108.5 M724.459,93.5 L737.459,108.5" fill="none" style="stroke:#181818;stroke-width:0.5;"/><text fill="#000000" font-family="sans-serif" font-size="14" lengthAdjust="spacing" textLength="62.918" x="693" y="122.9951">Keycloak</text></g><!--link Guest to UC_Register--><g class="link" data-entity-1="ent0002" data-entity-2="ent0007" data-link-type="dependency" data-source-line="26" id="lnk18"><path d="M339,99.76 C352.01,96.04 365.35,92.33 378,89 C409.53,80.71 439.5857,73.6741 466.7157,67.5841" fill="none" id="Guest-to-UC_Register" style="stroke:#181818;stroke-width:1;"/><polygon fill="#181818" points="472.57,66.27,462.9124,64.3383,467.6914,67.3651,464.6646,72.1441,472.57,66.27" style="stroke:#181818;stroke-width:1;"/></g><!--link Guest to UC_Login--><g class="link" data-entity-1="ent0002" data-entity-2="ent0008" data-link-type="dependency" data-source-line="27" id="lnk19"><path d="M339.31,124 C371.47,124 402.26,124 433.84,124" fill="none" id="Guest-to-UC_Login" style="stroke:#181818;stroke-width:1;"/><polygon fill="#181818" points="439.84,124,430.84,120,434.84,124,430.84,128,439.84,124" style="stroke:#181818;stroke-width:1;"/></g><!--link Guest to UC_Availability--><g class="link" data-entity-1="ent0002" data-entity-2="ent0011" data-link-type="dependency" data-source-line="28" id="lnk20"><path d="M339.31,148.57 C374.4,159.25 409.2793,169.8552 442.6093,179.9852" fill="none" id="Guest-to-UC_Availability" style="stroke:#181818;stroke-width:1;"/><polygon fill="#181818" points="448.35,181.73,440.9021,175.2857,443.5661,180.276,438.5758,182.94,448.35,181.73" style="stroke:#181818;stroke-width:1;"/></g><!--link UC_Register to Keycloak--><g class="link" data-entity-1="ent0007" data-entity-2="ent0005" data-link-type="dependency" data-source-line="30" id="lnk21"><path d="M564.89,64.19 C604.33,70.11 653.1365,77.4392 686.9065,82.5092" fill="none" id="UC_Register-to-Keycloak" style="stroke:#181818;stroke-width:1;"/><polygon fill="#181818" points="692.84,83.4,684.5336,78.1081,687.8954,82.6577,683.3459,86.0194,692.84,83.4" style="stroke:#181818;stroke-width:1;"/></g><!--link UC_Login to Keycloak--><g class="link" data-entity-1="ent0008" data-entity-2="ent0005" data-link-type="dependency" data-source-line="31" id="lnk22"><path d="M577.01,113.54 C614.99,106.92 656.599,99.6595 687.029,94.3595" fill="none" id="UC_Login-to-Keycloak" style="stroke:#181818;stroke-width:1;"/><polygon fill="#181818" points="692.94,93.33,683.3871,90.9336,688.0142,94.1879,684.7598,98.815,692.94,93.33" style="stroke:#181818;stroke-width:1;"/></g><!--link User to UC_Profile--><g class="link" data-entity-1="ent0003" data-entity-2="ent0009" data-link-type="dependency" data-source-line="33" id="lnk23"><path d="M323.51,435.93 C341.16,430.32 360.28,424.34 378,419 C403.22,411.4 425.3859,405.0109 449.4259,398.2209" fill="none" id="User-to-UC_Profile" style="stroke:#181818;stroke-width:1;"/><polygon fill="#181818" points="455.2,396.59,445.4516,395.1869,450.3882,397.9491,447.6261,402.8857,455.2,396.59" style="stroke:#181818;stroke-width:1;"/></g><!--link User to UC_Vehicles--><g class="link" data-entity-1="ent0003" data-entity-2="ent0010" data-link-type="dependency" data-source-line="34" id="lnk24"><path d="M323.56,457 C354.43,457 385.81,457 419.32,457" fill="none" id="User-to-UC_Vehicles" style="stroke:#181818;stroke-width:1;"/><polygon fill="#181818" points="425.32,457,416.32,453,420.32,457,416.32,461,425.32,457" style="stroke:#181818;stroke-width:1;"/></g><!--link User to UC_Availability--><g class="link" data-entity-1="ent0003" data-entity-2="ent0011" data-link-type="dependency" data-source-line="35" id="lnk25"><path d="M273.4,418.61 C291.99,375.17 327.59,304.76 378,261 C397.65,243.94 417.4028,233.3669 440.9328,224.1569" fill="none" id="User-to-UC_Availability" style="stroke:#181818;stroke-width:1;"/><polygon fill="#181818" points="446.52,221.97,436.6812,221.5256,441.864,223.7924,439.5971,228.9752,446.52,221.97" style="stroke:#181818;stroke-width:1;"/></g><!--link User to UC_CreateBooking--><g class="link" data-entity-1="ent0003" data-entity-2="ent0012" data-link-type="dependency" data-source-line="36" id="lnk26"><path d="M289.04,418.86 C311.26,393.45 343.39,361.15 378,341 C397.27,329.78 414.1459,323.1308 435.4259,317.1208" fill="none" id="User-to-UC_CreateBooking" style="stroke:#181818;stroke-width:1;"/><polygon fill="#181818" points="441.2,315.49,431.4516,314.0867,436.3882,316.849,433.626,321.7856,441.2,315.49" style="stroke:#181818;stroke-width:1;"/></g><!--link User to UC_ViewBookings--><g class="link" data-entity-1="ent0003" data-entity-2="ent0013" data-link-type="dependency" data-source-line="37" id="lnk27"><path d="M323.58,477.83 C341.23,483.44 360.34,489.48 378,495 C402.22,502.56 423.1522,509.0157 446.4722,516.1457" fill="none" id="User-to-UC_ViewBookings" style="stroke:#181818;stroke-width:1;"/><polygon fill="#181818" points="452.21,517.9,444.7728,511.4433,447.4285,516.4381,442.4338,519.0937,452.21,517.9" style="stroke:#181818;stroke-width:1;"/></g><!--link User to UC_DeleteBooking--><g class="link" data-entity-1="ent0003" data-entity-2="ent0014" data-link-type="dependency" data-source-line="38" id="lnk28"><path d="M287.62,495.26 C309.76,521.92 342.39,556.43 378,578 C396.19,589.02 411.7833,595.602 432.1133,601.832" fill="none" id="User-to-UC_DeleteBooking" style="stroke:#181818;stroke-width:1;"/><polygon fill="#181818" points="437.85,603.59,430.417,597.1286,433.0694,602.125,428.073,604.7775,437.85,603.59" style="stroke:#181818;stroke-width:1;"/></g><!--link UC_CreateBooking to UC_Availability--><g class="link" data-entity-1="ent0012" data-entity-2="ent0011" data-link-type="dependency" data-source-line="40" id="lnk29"><path d="M516,278.54 C516,263.25 516,248.99 516,233.16" fill="none" id="UC_CreateBooking-to-UC_Availability" style="stroke:#181818;stroke-width:1;stroke-dasharray:7,7;"/><polygon fill="#181818" points="516,227.16,512,236.16,516,232.16,520,236.16,516,227.16" style="stroke:#181818;stroke-width:1;"/><text fill="#000000" font-family="sans-serif" font-size="13" lengthAdjust="spacing" textLength="63.0068" x="473" y="257.5669">&#171;include&#187;</text></g><!--link Admin to User--><g class="link" data-entity-1="ent0004" data-entity-2="ent0003" data-link-type="extension" data-source-line="42" id="lnk30"><path d="M87.8,700.97 C125.02,647.15 182.4318,564.1147 219.7618,510.1347" fill="none" id="Admin-to-User" style="stroke:#181818;stroke-width:1;"/><polygon fill="none" points="230,495.33,214.8269,506.722,224.6967,513.5474,230,495.33" style="stroke:#181818;stroke-width:1;"/></g><!--link Admin to UC_ManageParking--><g class="link" data-entity-1="ent0004" data-entity-2="ent0015" data-link-type="dependency" data-source-line="43" id="lnk31"><path d="M115.22,726.94 C125.08,725.05 135.32,723.29 145,722 C244.53,708.7 354.1638,702.9123 429.3038,700.2523" fill="none" id="Admin-to-UC_ManageParking" style="stroke:#181818;stroke-width:1;"/><polygon fill="#181818" points="435.3,700.04,426.1641,696.3609,430.3031,700.2169,426.4471,704.3559,435.3,700.04" style="stroke:#181818;stroke-width:1;"/></g><!--link Admin to UC_AllBookings--><g class="link" data-entity-1="ent0004" data-entity-2="ent0016" data-link-type="dependency" data-source-line="44" id="lnk32"><path d="M115.3,743.39 C191.91,749.64 327.3699,760.6922 419.8099,768.2322" fill="none" id="Admin-to-UC_AllBookings" style="stroke:#181818;stroke-width:1;"/><polygon fill="#181818" points="425.79,768.72,417.145,764.0016,420.8066,768.3135,416.4946,771.9751,425.79,768.72" style="stroke:#181818;stroke-width:1;"/></g><!--link Admin to UC_AllUsers--><g class="link" data-entity-1="ent0004" data-entity-2="ent0017" data-link-type="dependency" data-source-line="45" id="lnk33"><path d="M115.04,753.69 C134.25,758.9 156.08,764.78 176,770 C273.94,795.68 382.2986,822.937 450.0086,839.837" fill="none" id="Admin-to-UC_AllUsers" style="stroke:#181818;stroke-width:1;"/><polygon fill="#181818" points="455.83,841.29,448.0665,835.2296,450.9788,840.0792,446.1292,842.9915,455.83,841.29" style="stroke:#181818;stroke-width:1;"/></g><?plantuml-src TLJ1Rjim3BthAuZSkmyO2WDPD_Im3YWsjAS20wSm3b5M2YIwGxFjN_Ol-x59Skn8RdgonKS-FehF5jegg8V0_KvXmu6iidV6e5KVO7Mdv9J0UGSuv7Usg7u56E5weAYBl6NENQGmfQoVdjXnr930G0LURr9emZ_JYnMFZmMP3iPaHUXw8LZTOdXaryEtlTSL_386O8XaCIRiA_M5EqGUErzz7qD9G9NsQRibrG430Gk8xzbDwJVvq71Ufm5vpDm7lm_iytFBugUQstAaiqN76dWcjbvcLVUqOoiKcqvNtiL1DCiIJ6k8U-_u1mlhlxyFRaE938FTKT_FFEjdPC6Iyz9G1SeqWyCaW9nNFAI5qbIMOQKFtkURhElkEGueV3WK4NHKJm-kOZaDmVJpo16RvkWiYPm4P0viE6Ob7qdefEIDArnE_GKTzdGqmfloTL3DGvmNlnOvfxrXw8LXz79LbTqSpHzZYlNXug9hRDP4HpSreMPZfgei2RFZf-8sQdBpYMcoNHsRVLK7cvOrqDgWuQbNMmEBVIr9uDshZl0UBY_PMHasr7N6bCyzqVtknX_3TEvURxQ1weKjWRAJ_m00?></g></svg>